<svg xmlns="http://www.w3.org/2000/svg" enable-background="new 0 0 70 70" viewBox="0 0 70 70" fill="#f5f5f5"><path d="M58 55.2H12c-.6 0-1 .4-1 1s.4 1 1 1h46c.6 0 1-.4 1-1S58.6 55.2 58 55.2zM14.5 53.6h5c.6 0 1-.4 1-1V31.1c0-.6-.4-1-1-1h-5c-.6 0-1 .4-1 1v21.5C13.5 53.1 13.9 53.6 14.5 53.6zM15.5 32.1h3v19.5h-3V32.1zM23.5 38c-.6 0-1 .4-1 1v13.6c0 .6.4 1 1 1h5c.6 0 1-.4 1-1V39c0-.6-.4-1-1-1H23.5zM27.5 51.6h-3V40h3V51.6zM32.5 27c-.6 0-1 .4-1 1v24.6c0 .6.4 1 1 1h5c.6 0 1-.4 1-1V28c0-.6-.4-1-1-1H32.5zM36.5 51.6h-3V29h3V51.6zM41.5 35.6c-.6 0-1 .4-1 1v16c0 .6.4 1 1 1h5c.6 0 1-.4 1-1v-16c0-.6-.4-1-1-1H41.5zM45.5 51.6h-3v-14h3V51.6zM50.5 25.8c-.6 0-1 .4-1 1v25.8c0 .6.4 1 1 1h5c.6 0 1-.4 1-1V26.8c0-.6-.4-1-1-1H50.5zM54.5 51.6h-3V27.8h3V51.6z"/><path d="M17,25.1c0.5,0,0.9-0.1,1.4-0.3l4.7,5.7c-0.4,0.5-0.6,1.2-0.6,2c0,1.9,1.6,3.5,3.5,3.5s3.5-1.6,3.5-3.5c0-1-0.4-1.8-0.9-2.4
	l5.5-9.2c0.3,0.1,0.6,0.1,0.9,0.1c0.4,0,0.8-0.1,1.1-0.2l5.1,7.1c-0.4,0.6-0.7,1.3-0.7,2.2c0,1.9,1.6,3.5,3.5,3.5s3.5-1.6,3.5-3.5
	c0-1-0.3-1.7-0.8-2.3l5.3-8.1c0.3,0.1,0.6,0.2,1,0.2c1.9,0,3.5-1.6,3.5-3.5s-1.6-3.5-3.5-3.5s-3.5,1.6-3.5,3.5
	c0,0.9,0.3,1.6,0.8,2.2L45,26.7c-0.3-0.1-0.7-0.1-1-0.1c-0.4,0-0.8,0.1-1.1,0.2l-5.1-7.1c0.4-0.6,0.7-1.3,0.7-2.2
	c0-1.9-1.6-3.5-3.5-3.5s-3.5,1.6-3.5,3.5c0,0.9,0.3,1.8,0.9,2.4l-5.5,9.2C26.6,29,26.3,29,26,29c-0.5,0-0.9,0.1-1.4,0.3l-4.7-5.7
	c0.4-0.6,0.6-1.2,0.6-1.9c0-1.9-1.6-3.5-3.5-3.5s-3.5,1.6-3.5,3.5S15.1,25.1,17,25.1z M53,14.8c0.8,0,1.5,0.7,1.5,1.5
	s-0.7,1.5-1.5,1.5s-1.5-0.7-1.5-1.5S52.2,14.8,53,14.8z M43,28.9c0.1,0,0.1,0,0.2-0.1c0,0,0,0,0.1-0.1c0.3-0.1,0.5-0.2,0.8-0.2
	c0.4,0,0.8,0.1,1.1,0.4c0.3,0.3,0.4,0.6,0.4,1.1c0,0.8-0.7,1.5-1.5,1.5s-1.5-0.7-1.5-1.5C42.5,29.5,42.7,29.2,43,28.9z M35,16
	c0.8,0,1.5,0.7,1.5,1.5c0,0.6-0.2,0.9-0.5,1.2c0,0-0.1,0-0.1,0.1c0,0,0,0-0.1,0.1C35.6,18.9,35.3,19,35,19c-0.2,0-0.5-0.1-0.7-0.2
	c0,0,0,0,0,0c0,0,0,0-0.1,0c-0.4-0.2-0.7-0.6-0.7-1.3C33.5,16.7,34.2,16,35,16z M24.9,31.4c0,0,0.1,0,0.1-0.1c0,0,0,0,0-0.1
	c0.3-0.2,0.6-0.3,0.9-0.3c0.4,0,0.8,0.1,1.1,0.4c0.3,0.3,0.4,0.6,0.4,1.1c0,0.8-0.7,1.5-1.5,1.5s-1.5-0.7-1.5-1.5
	C24.5,32,24.7,31.6,24.9,31.4z M17,20.1c0.8,0,1.5,0.7,1.5,1.5s-0.7,1.5-1.5,1.5s-1.5-0.7-1.5-1.5S16.2,20.1,17,20.1z"/></svg>